# xmcd
#
# Track frame offsets: 
#        150
#        9785
#        24671
#        35308
#        48114
#        59763
#        70291
#        84736
#        94610
#        106045
#        118044
#        128033
#        138327
#        150445
#        161153
#        173692
#        186611
#        196535
#        206780
#        217727
#        229025
#        241559
#        253109
#        263990
#        273887
#
# Disc length: 3815 seconds
#
# Revision: 1
# Processed by: cddbd v1.5.2PL0 Copyright (c) Steve Scherf et al.
# Submitted via: ExactAudioCopyFreeDBPlugin 1.0
#
DISCID=4b0ee519
DTITLE=Various Artist - Soul Sixties [Real Gone Music]
DYEAR=2017
DGENRE=Soul
TTITLE0=H. Barnum - How Many More Times
TTITLE1=The Sensations - Music, Music, Music
TTITLE2=The Fiestas - Look at That Girl
TTITLE3=The Supremes - Who's Lovin' You
TTITLE4=The Blossoms - Hard to Get
TTITLE5=Chuck Jackson - I Don't Want to Cry
TTITLE6=Mitty Collier - I Got to Get Away from It All
TTITLE7=Jean Dushon - Tired of Trying
TTITLE8=Bobby "Blue" Bland - Ain't That Lovin' You
TTITLE9=The Flamingos - That's Why I Love You
TTITLE10=Wade Flemons - At the Party
TTITLE11=Eddie Bo - Dinky Doo
TTITLE12=Aretha Franklin - Are You Sure?
TTITLE13=The Dells - Swinging Teens
TTITLE14=Curtis Lee - Pretty Little Angel Eyes
TTITLE15=Johnny and Jackey - Someday We'll Be Together
TTITLE16=Dee Clark - Your Friends
TTITLE17=Gene McDaniels - Tower of Strength
TTITLE18=The Dukays - Nite Owl
TTITLE19=The Marvelettes - Please Mr. Postman
TTITLE20=Sugar Pie Desanto - Can't Let You Go
TTITLE21=The Miracles - Ain't it Baby
TTITLE22=The O'Jays - Miracles
TTITLE23=Billy Preston - Volcano
TTITLE24=Lloyd Price - Talk to Me
EXTD=
EXTT0=
EXTT1=
EXTT2=
EXTT3=
EXTT4=
EXTT5=
EXTT6=
EXTT7=
EXTT8=
EXTT9=
EXTT10=
EXTT11=
EXTT12=
EXTT13=
EXTT14=
EXTT15=
EXTT16=
EXTT17=
EXTT18=
EXTT19=
EXTT20=
EXTT21=
EXTT22=
EXTT23=
EXTT24=
PLAYORDER=
